<?xml version="1.0" encoding="utf-8"?>
<!-- Generator: Adobe Illustrator 26.0.3, SVG Export Plug-In . SVG Version: 6.00 Build 0)  -->
<svg version="1.1" id="Layer_1" xmlns="http://www.w3.org/2000/svg" xmlns:xlink="http://www.w3.org/1999/xlink" x="0px" y="0px"
	 viewBox="0 0 256 256" style="enable-background:new 0 0 256 256;" xml:space="preserve">
<style type="text/css">
	.st0{fill:#FFFFFF;}
	.st1{fill:#951B81;}
</style>
<path id="XMLID_12_" class="st0" d="M246,256H10c-5.5,0-10-4.5-10-10V10C0,4.5,4.5,0,10,0h236c5.5,0,10,4.5,10,10v236
	C256,251.5,251.5,256,246,256z"/>
<g>
	<path class="st1" d="M37.3,22.9v1.6h-5.9v-1.6H37.3z"/>
	<path class="st1" d="M44.6,22.9v1.6h-5.9v-1.6H44.6z"/>
	<path class="st1" d="M52,22.9v1.6h-5.9v-1.6H52z"/>
	<path class="st1" d="M33.2,47.3l2.3,6.5c0.4,1.1,0.7,2,0.9,3h0.1c0.3-1,0.6-1.9,1-3l2.3-6.5h2.2l-4.6,11.6h-2l-4.4-11.6H33.2z"/>
	<path class="st1" d="M44.8,53.5c0,2.9,1.9,4,4,4c1.5,0,2.4-0.3,3.2-0.6l0.4,1.5c-0.7,0.3-2,0.7-3.9,0.7c-3.6,0-5.7-2.4-5.7-5.9
		c0-3.5,2.1-6.3,5.4-6.3c3.8,0,4.8,3.3,4.8,5.5c0,0.4,0,0.8-0.1,1H44.8z M51,52c0-1.3-0.6-3.4-2.9-3.4c-2.1,0-3.1,2-3.2,3.4H51z"/>
	<path class="st1" d="M55.7,50.9c0-1.4,0-2.5-0.1-3.6h1.8l0.1,2.3h0.1c0.5-1.6,1.8-2.5,3.2-2.5c0.2,0,0.4,0,0.6,0.1v2
		c-0.2,0-0.4-0.1-0.7-0.1c-1.5,0-2.5,1.1-2.8,2.7c0,0.3-0.1,0.6-0.1,1v6.2h-2.1V50.9z"/>
	<path class="st1" d="M63.3,56.8c0.6,0.4,1.7,0.8,2.8,0.8c1.5,0,2.3-0.8,2.3-1.7c0-1-0.6-1.6-2.2-2.1c-2.1-0.7-3.1-1.9-3.1-3.3
		c0-1.9,1.5-3.4,4-3.4c1.2,0,2.2,0.3,2.9,0.7l-0.5,1.5c-0.5-0.3-1.3-0.7-2.4-0.7c-1.2,0-1.9,0.7-1.9,1.6c0,1,0.7,1.4,2.2,2
		c2,0.8,3,1.8,3,3.5c0,2-1.6,3.5-4.3,3.5c-1.3,0-2.4-0.3-3.3-0.8L63.3,56.8z"/>
	<path class="st1" d="M75.4,44.1c0,0.7-0.5,1.3-1.3,1.3c-0.7,0-1.3-0.6-1.3-1.3c0-0.7,0.6-1.3,1.3-1.3
		C74.9,42.7,75.4,43.3,75.4,44.1z M73,58.9V47.3h2.1v11.6H73z"/>
	<path class="st1" d="M89.2,53c0,4.3-3,6.2-5.8,6.2c-3.1,0-5.6-2.3-5.6-6c0-3.9,2.5-6.2,5.8-6.2C86.9,47.1,89.2,49.5,89.2,53z
		 M80,53.2c0,2.5,1.5,4.5,3.5,4.5c2,0,3.5-1.9,3.5-4.5c0-2-1-4.5-3.5-4.5S80,50.9,80,53.2z"/>
	<path class="st1" d="M91.8,50.5c0-1.2,0-2.2-0.1-3.1h1.9l0.1,1.9h0c0.6-1.1,1.9-2.2,3.8-2.2c1.6,0,4.1,1,4.1,4.9v6.9h-2.1v-6.7
		c0-1.9-0.7-3.4-2.7-3.4c-1.4,0-2.5,1-2.8,2.2C94,51.2,94,51.6,94,52v7h-2.1V50.5z"/>
	<path class="st1" d="M104.7,49.2c0-0.9,0.6-1.5,1.4-1.5c0.8,0,1.4,0.6,1.4,1.5c0,0.8-0.6,1.5-1.4,1.5
		C105.2,50.7,104.7,50.1,104.7,49.2z M104.7,57.7c0-0.9,0.6-1.5,1.4-1.5c0.8,0,1.4,0.6,1.4,1.5c0,0.8-0.6,1.5-1.4,1.5
		C105.2,59.2,104.7,58.6,104.7,57.7z"/>
	<path class="st1" d="M114.5,58.9v-1.3l1.7-1.6c4-3.8,5.8-5.8,5.8-8.2c0-1.6-0.8-3-3.1-3c-1.4,0-2.6,0.7-3.3,1.3l-0.7-1.5
		c1.1-0.9,2.6-1.6,4.4-1.6c3.4,0,4.8,2.3,4.8,4.5c0,2.9-2.1,5.2-5.4,8.4l-1.2,1.2v0h7v1.8H114.5z"/>
	<path class="st1" d="M32.1,85.6c0.6,0.4,1.7,0.8,2.8,0.8c1.5,0,2.3-0.8,2.3-1.7c0-1-0.6-1.6-2.2-2.1c-2.1-0.7-3.1-1.9-3.1-3.3
		c0-1.9,1.5-3.4,4-3.4c1.2,0,2.2,0.3,2.9,0.7l-0.5,1.5c-0.5-0.3-1.3-0.7-2.4-0.7c-1.2,0-1.9,0.7-1.9,1.6c0,1,0.7,1.4,2.2,2
		c2,0.8,3,1.8,3,3.5c0,2-1.6,3.5-4.3,3.5c-1.3,0-2.4-0.3-3.3-0.8L32.1,85.6z"/>
	<path class="st1" d="M43,82.3c0,2.9,1.9,4,4,4c1.5,0,2.4-0.3,3.2-0.6l0.4,1.5c-0.7,0.3-2,0.7-3.9,0.7c-3.6,0-5.7-2.4-5.7-5.9
		c0-3.5,2.1-6.3,5.4-6.3c3.8,0,4.8,3.3,4.8,5.5c0,0.4,0,0.8-0.1,1H43z M49.2,80.8c0-1.3-0.6-3.4-2.9-3.4c-2.1,0-3.1,2-3.2,3.4H49.2z
		"/>
	<path class="st1" d="M56.4,72.8v3.3h3v1.6h-3V84c0,1.4,0.4,2.3,1.6,2.3c0.6,0,1-0.1,1.2-0.1l0.1,1.6c-0.4,0.2-1.1,0.3-1.9,0.3
		c-1,0-1.8-0.3-2.3-0.9c-0.6-0.6-0.8-1.7-0.8-3v-6.3h-1.8v-1.6h1.8v-2.8L56.4,72.8z"/>
	<path class="st1" d="M64.4,72.8v3.3h3v1.6h-3V84c0,1.4,0.4,2.3,1.6,2.3c0.6,0,1-0.1,1.2-0.1l0.1,1.6c-0.4,0.2-1.1,0.3-1.9,0.3
		c-1,0-1.8-0.3-2.3-0.9c-0.6-0.6-0.8-1.7-0.8-3v-6.3h-1.8v-1.6h1.8v-2.8L64.4,72.8z"/>
	<path class="st1" d="M72.1,72.9c0,0.7-0.5,1.3-1.3,1.3c-0.7,0-1.3-0.6-1.3-1.3c0-0.7,0.6-1.3,1.3-1.3
		C71.6,71.5,72.1,72.1,72.1,72.9z M69.8,87.7V76.1h2.1v11.6H69.8z"/>
	<path class="st1" d="M75.4,79.3c0-1.2,0-2.2-0.1-3.1h1.9l0.1,1.9h0c0.6-1.1,1.9-2.2,3.8-2.2c1.6,0,4.1,1,4.1,4.9v6.9h-2.1V81
		c0-1.9-0.7-3.4-2.7-3.4c-1.4,0-2.5,1-2.8,2.2c-0.1,0.3-0.1,0.6-0.1,1v7h-2.1V79.3z"/>
	<path class="st1" d="M98.7,76.1c0,0.8-0.1,1.8-0.1,3.2v6.7c0,2.7-0.5,4.3-1.7,5.3c-1.1,1.1-2.8,1.4-4.2,1.4c-1.4,0-2.9-0.3-3.9-1
		l0.5-1.6c0.8,0.5,2,0.9,3.4,0.9c2.2,0,3.7-1.1,3.7-4.1v-1.3h0c-0.6,1.1-1.9,1.9-3.7,1.9c-2.9,0-4.9-2.4-4.9-5.7
		c0-3.9,2.6-6.2,5.2-6.2c2,0,3.1,1.1,3.6,2h0l0.1-1.8H98.7z M96.5,80.7c0-0.4,0-0.7-0.1-1c-0.4-1.2-1.4-2.2-3-2.2
		c-2,0-3.5,1.7-3.5,4.4c0,2.3,1.2,4.2,3.4,4.2c1.3,0,2.5-0.8,2.9-2.2c0.1-0.4,0.2-0.8,0.2-1.1V80.7z"/>
	<path class="st1" d="M101.8,85.6c0.6,0.4,1.7,0.8,2.8,0.8c1.5,0,2.3-0.8,2.3-1.7c0-1-0.6-1.6-2.2-2.1c-2.1-0.7-3.1-1.9-3.1-3.3
		c0-1.9,1.5-3.4,4-3.4c1.2,0,2.2,0.3,2.9,0.7l-0.5,1.5c-0.5-0.3-1.3-0.7-2.4-0.7c-1.2,0-1.9,0.7-1.9,1.6c0,1,0.7,1.4,2.2,2
		c2,0.8,3,1.8,3,3.5c0,2-1.6,3.5-4.3,3.5c-1.3,0-2.4-0.3-3.3-0.8L101.8,85.6z"/>
	<path class="st1" d="M111.1,78c0-0.9,0.6-1.5,1.4-1.5c0.8,0,1.4,0.6,1.4,1.5c0,0.8-0.6,1.5-1.4,1.5C111.7,79.5,111.1,78.9,111.1,78
		z M111.1,86.5c0-0.9,0.6-1.5,1.4-1.5c0.8,0,1.4,0.6,1.4,1.5c0,0.8-0.6,1.5-1.4,1.5C111.7,88,111.1,87.4,111.1,86.5z"/>
	<path class="st1" d="M50.8,116.1c-0.6,0.3-1.8,0.7-3.3,0.7c-3.5,0-5.8-2.4-5.8-5.9c0-3.6,2.4-6.2,6.2-6.2c1.2,0,2.4,0.3,2.9,0.6
		l-0.5,1.6c-0.5-0.3-1.3-0.6-2.4-0.6c-2.7,0-4.1,2-4.1,4.4c0,2.7,1.7,4.3,4,4.3c1.2,0,2-0.3,2.6-0.6L50.8,116.1z"/>
	<path class="st1" d="M63.7,110.6c0,4.3-3,6.2-5.8,6.2c-3.1,0-5.6-2.3-5.6-6c0-3.9,2.5-6.2,5.8-6.2
		C61.4,104.7,63.7,107.1,63.7,110.6z M54.4,110.8c0,2.5,1.5,4.5,3.5,4.5c2,0,3.5-1.9,3.5-4.5c0-2-1-4.5-3.5-4.5
		S54.4,108.5,54.4,110.8z"/>
	<path class="st1" d="M66.3,99.5h2.1v17h-2.1V99.5z"/>
	<path class="st1" d="M82.5,110.6c0,4.3-3,6.2-5.8,6.2c-3.1,0-5.6-2.3-5.6-6c0-3.9,2.5-6.2,5.8-6.2
		C80.2,104.7,82.5,107.1,82.5,110.6z M73.3,110.8c0,2.5,1.5,4.5,3.5,4.5c2,0,3.5-1.9,3.5-4.5c0-2-1-4.5-3.5-4.5
		S73.3,108.5,73.3,110.8z"/>
	<path class="st1" d="M85.2,108.5c0-1.4,0-2.5-0.1-3.6h1.8l0.1,2.3h0.1c0.5-1.6,1.8-2.5,3.2-2.5c0.2,0,0.4,0,0.6,0.1v2
		c-0.2,0-0.4-0.1-0.7-0.1c-1.5,0-2.5,1.1-2.8,2.7c0,0.3-0.1,0.6-0.1,1v6.2h-2.1V108.5z"/>
	<path class="st1" d="M92.7,106.8c0-0.9,0.6-1.5,1.4-1.5c0.8,0,1.4,0.6,1.4,1.5c0,0.8-0.6,1.5-1.4,1.5
		C93.3,108.3,92.7,107.7,92.7,106.8z M92.7,115.3c0-0.9,0.6-1.5,1.4-1.5c0.8,0,1.4,0.6,1.4,1.5c0,0.8-0.6,1.5-1.4,1.5
		C93.3,116.8,92.7,116.2,92.7,115.3z"/>
	<path class="st1" d="M52.7,137.5c0-1.5,0-2.7-0.1-3.8h1.9l0.1,2h0c0.9-1.4,2.2-2.3,4.1-2.3c2.8,0,4.9,2.4,4.9,5.9
		c0,4.2-2.5,6.2-5.3,6.2c-1.5,0-2.9-0.7-3.6-1.8h0v6.3h-2.1V137.5z M54.8,140.6c0,0.3,0,0.6,0.1,0.9c0.4,1.5,1.7,2.5,3.2,2.5
		c2.2,0,3.5-1.8,3.5-4.5c0-2.3-1.2-4.3-3.5-4.3c-1.4,0-2.8,1-3.2,2.6c-0.1,0.3-0.1,0.6-0.1,0.9V140.6z"/>
	<path class="st1" d="M72.8,145.3l-0.2-1.5h-0.1c-0.6,0.9-1.9,1.7-3.6,1.7c-2.4,0-3.6-1.7-3.6-3.3c0-2.8,2.5-4.3,7-4.3v-0.2
		c0-1-0.3-2.7-2.6-2.7c-1.1,0-2.2,0.3-3,0.9l-0.5-1.4c1-0.6,2.4-1,3.8-1c3.6,0,4.4,2.4,4.4,4.8v4.3c0,1,0,2,0.2,2.8H72.8z
		 M72.5,139.4c-2.3,0-4.9,0.4-4.9,2.6c0,1.4,0.9,2,2,2c1.5,0,2.5-1,2.8-1.9c0.1-0.2,0.1-0.5,0.1-0.7V139.4z"/>
	<path class="st1" d="M77.9,128.3h2.1v17h-2.1V128.3z"/>
	<path class="st1" d="M84.8,139.9c0,2.9,1.9,4,4,4c1.5,0,2.4-0.3,3.2-0.6l0.4,1.5c-0.7,0.3-2,0.7-3.9,0.7c-3.6,0-5.7-2.4-5.7-5.9
		c0-3.5,2.1-6.3,5.4-6.3c3.8,0,4.8,3.3,4.8,5.5c0,0.4,0,0.8-0.1,1H84.8z M91,138.4c0-1.3-0.6-3.4-2.9-3.4c-2.1,0-3.1,2-3.2,3.4H91z"
		/>
	<path class="st1" d="M98.2,130.4v3.3h3v1.6h-3v6.3c0,1.4,0.4,2.3,1.6,2.3c0.6,0,1-0.1,1.2-0.1l0.1,1.6c-0.4,0.2-1.1,0.3-1.9,0.3
		c-1,0-1.8-0.3-2.3-0.9c-0.6-0.6-0.8-1.7-0.8-3v-6.3h-1.8v-1.6h1.8v-2.8L98.2,130.4z"/>
	<path class="st1" d="M106.1,130.4v3.3h3v1.6h-3v6.3c0,1.4,0.4,2.3,1.6,2.3c0.6,0,1-0.1,1.2-0.1l0.1,1.6c-0.4,0.2-1.1,0.3-1.9,0.3
		c-1,0-1.8-0.3-2.3-0.9c-0.6-0.6-0.8-1.7-0.8-3v-6.3h-1.8v-1.6h1.8v-2.8L106.1,130.4z"/>
	<path class="st1" d="M112.6,139.9c0,2.9,1.9,4,4,4c1.5,0,2.4-0.3,3.2-0.6l0.4,1.5c-0.7,0.3-2,0.7-3.9,0.7c-3.6,0-5.7-2.4-5.7-5.9
		c0-3.5,2.1-6.3,5.4-6.3c3.8,0,4.8,3.3,4.8,5.5c0,0.4,0,0.8-0.1,1H112.6z M118.7,138.4c0-1.3-0.6-3.4-2.9-3.4c-2.1,0-3.1,2-3.2,3.4
		H118.7z"/>
	<path class="st1" d="M122.9,135.6c0-0.9,0.6-1.5,1.4-1.5c0.8,0,1.4,0.6,1.4,1.5c0,0.8-0.6,1.5-1.4,1.5
		C123.5,137.1,122.9,136.5,122.9,135.6z M122.9,144.1c0-0.9,0.6-1.5,1.4-1.5c0.8,0,1.4,0.6,1.4,1.5c0,0.8-0.6,1.5-1.4,1.5
		C123.5,145.6,122.9,145,122.9,144.1z"/>
	<path class="st1" d="M57.6,166.9v1.6h-5.9v-1.6H57.6z"/>
	<path class="st1" d="M65.2,165.7c0-1.2,0-2.2-0.1-3.1H67l0.1,1.9h0c0.6-1.1,1.9-2.2,3.8-2.2c1.6,0,4.1,1,4.1,4.9v6.9H73v-6.7
		c0-1.9-0.7-3.4-2.7-3.4c-1.4,0-2.5,1-2.8,2.2c-0.1,0.3-0.1,0.6-0.1,1v7h-2.1V165.7z"/>
	<path class="st1" d="M84.9,174.1l-0.2-1.5h-0.1c-0.6,0.9-1.9,1.7-3.6,1.7c-2.4,0-3.6-1.7-3.6-3.3c0-2.8,2.5-4.3,7-4.3v-0.2
		c0-1-0.3-2.7-2.6-2.7c-1.1,0-2.2,0.3-3,0.9l-0.5-1.4c1-0.6,2.4-1,3.8-1c3.6,0,4.4,2.4,4.4,4.8v4.3c0,1,0,2,0.2,2.8H84.9z
		 M84.6,168.2c-2.3,0-4.9,0.4-4.9,2.6c0,1.4,0.9,2,2,2c1.5,0,2.5-1,2.8-1.9c0.1-0.2,0.1-0.5,0.1-0.7V168.2z"/>
	<path class="st1" d="M90.1,165.7c0-1.2,0-2.2-0.1-3.1h1.8l0.1,1.9H92c0.6-1.1,1.7-2.1,3.6-2.1c1.6,0,2.8,1,3.3,2.3h0
		c0.4-0.6,0.8-1.2,1.3-1.5c0.7-0.5,1.5-0.8,2.6-0.8c1.5,0,3.8,1,3.8,5v6.8h-2.1v-6.6c0-2.2-0.8-3.6-2.5-3.6c-1.2,0-2.1,0.9-2.5,1.9
		c-0.1,0.3-0.2,0.7-0.2,1.1v7.2h-2.1v-7c0-1.8-0.8-3.2-2.4-3.2c-1.3,0-2.3,1.1-2.6,2.1c-0.1,0.3-0.2,0.7-0.2,1v7h-2.1V165.7z"/>
	<path class="st1" d="M111.3,168.7c0,2.9,1.9,4,4,4c1.5,0,2.4-0.3,3.2-0.6l0.4,1.5c-0.7,0.3-2,0.7-3.9,0.7c-3.6,0-5.7-2.4-5.7-5.9
		c0-3.5,2.1-6.3,5.4-6.3c3.8,0,4.8,3.3,4.8,5.5c0,0.4,0,0.8-0.1,1H111.3z M117.4,167.2c0-1.3-0.6-3.4-2.9-3.4c-2.1,0-3.1,2-3.2,3.4
		H117.4z"/>
	<path class="st1" d="M121.6,164.4c0-0.9,0.6-1.5,1.4-1.5c0.8,0,1.4,0.6,1.4,1.5c0,0.8-0.6,1.5-1.4,1.5
		C122.2,165.9,121.6,165.3,121.6,164.4z M121.6,172.9c0-0.9,0.6-1.5,1.4-1.5c0.8,0,1.4,0.6,1.4,1.5c0,0.8-0.6,1.5-1.4,1.5
		C122.2,174.4,121.6,173.8,121.6,172.9z"/>
	<path class="st1" d="M132.2,158.2c0.9-0.2,2.4-0.3,3.8-0.3c2.1,0,3.4,0.4,4.4,1.2c0.8,0.6,1.3,1.6,1.3,2.9c0,1.6-1,2.9-2.7,3.6v0
		c1.5,0.4,3.3,1.7,3.3,4.1c0,1.4-0.6,2.4-1.4,3.2c-1.1,1-3,1.5-5.6,1.5c-1.4,0-2.5-0.1-3.2-0.2V158.2z M134.3,164.8h1.9
		c2.2,0,3.5-1.2,3.5-2.7c0-1.9-1.4-2.6-3.6-2.6c-1,0-1.5,0.1-1.8,0.1V164.8z M134.3,172.6c0.4,0.1,1,0.1,1.8,0.1
		c2.2,0,4.2-0.8,4.2-3.1c0-2.2-1.9-3.1-4.2-3.1h-1.7V172.6z"/>
	<path class="st1" d="M145.2,157.1h2.1v17h-2.1V157.1z"/>
	<path class="st1" d="M157.3,174.1l-0.2-1.5H157c-0.6,0.9-1.9,1.7-3.6,1.7c-2.4,0-3.6-1.7-3.6-3.3c0-2.8,2.5-4.3,7-4.3v-0.2
		c0-1-0.3-2.7-2.6-2.7c-1.1,0-2.2,0.3-3,0.9l-0.5-1.4c1-0.6,2.4-1,3.8-1c3.6,0,4.4,2.4,4.4,4.8v4.3c0,1,0,2,0.2,2.8H157.3z
		 M157,168.2c-2.3,0-4.9,0.4-4.9,2.6c0,1.4,0.9,2,2,2c1.5,0,2.5-1,2.8-1.9c0.1-0.2,0.1-0.5,0.1-0.7V168.2z"/>
	<path class="st1" d="M170.7,173.7c-0.6,0.3-1.8,0.7-3.3,0.7c-3.5,0-5.8-2.4-5.8-5.9c0-3.6,2.4-6.2,6.2-6.2c1.2,0,2.4,0.3,2.9,0.6
		l-0.5,1.6c-0.5-0.3-1.3-0.6-2.4-0.6c-2.7,0-4.1,2-4.1,4.4c0,2.7,1.7,4.3,4,4.3c1.2,0,2-0.3,2.6-0.6L170.7,173.7z"/>
	<path class="st1" d="M175.2,167.9L175.2,167.9c0.3-0.4,0.7-0.9,1.1-1.3l3.4-4h2.5l-4.5,4.8l5.1,6.8h-2.6l-4-5.6l-1.1,1.2v4.4h-2.1
		v-17h2.1V167.9z"/>
	<path class="st1" d="M62.6,200.8c0.6,0.4,1.7,0.8,2.8,0.8c1.5,0,2.3-0.8,2.3-1.7c0-1-0.6-1.6-2.2-2.1c-2.1-0.7-3.1-1.9-3.1-3.3
		c0-1.9,1.5-3.4,4-3.4c1.2,0,2.2,0.3,2.9,0.7l-0.5,1.5c-0.5-0.3-1.3-0.7-2.4-0.7c-1.2,0-1.9,0.7-1.9,1.6c0,1,0.7,1.4,2.2,2
		c2,0.8,3,1.8,3,3.5c0,2-1.6,3.5-4.3,3.5c-1.3,0-2.4-0.3-3.3-0.8L62.6,200.8z"/>
	<path class="st1" d="M72.4,185.9h2.1v17h-2.1V185.9z"/>
	<path class="st1" d="M87.8,199.8c0,1.2,0,2.3,0.1,3.2H86l-0.1-1.9h0c-0.6,0.9-1.8,2.2-3.8,2.2c-1.8,0-4-1-4-5.1v-6.8h2.1v6.4
		c0,2.2,0.7,3.7,2.6,3.7c1.4,0,2.4-1,2.8-1.9c0.1-0.3,0.2-0.7,0.2-1.1v-7.1h2.1V199.8z"/>
	<path class="st1" d="M101.3,191.3c0,0.8-0.1,1.8-0.1,3.2v6.7c0,2.7-0.5,4.3-1.7,5.3c-1.1,1.1-2.8,1.4-4.2,1.4c-1.4,0-2.9-0.3-3.9-1
		l0.5-1.6c0.8,0.5,2,0.9,3.4,0.9c2.2,0,3.7-1.1,3.7-4.1v-1.3h0c-0.6,1.1-1.9,1.9-3.7,1.9c-2.9,0-4.9-2.4-4.9-5.7
		c0-3.9,2.6-6.2,5.2-6.2c2,0,3.1,1.1,3.6,2h0l0.1-1.8H101.3z M99.1,195.9c0-0.4,0-0.7-0.1-1c-0.4-1.2-1.4-2.2-3-2.2
		c-2,0-3.5,1.7-3.5,4.4c0,2.3,1.2,4.2,3.4,4.2c1.3,0,2.5-0.8,2.9-2.2c0.1-0.4,0.2-0.8,0.2-1.1V195.9z"/>
	<path class="st1" d="M104.2,193.2c0-0.9,0.6-1.5,1.4-1.5c0.8,0,1.4,0.6,1.4,1.5c0,0.8-0.6,1.5-1.4,1.5
		C104.8,194.7,104.2,194.1,104.2,193.2z M104.2,201.7c0-0.9,0.6-1.5,1.4-1.5c0.8,0,1.4,0.6,1.4,1.5c0,0.8-0.6,1.5-1.4,1.5
		C104.8,203.2,104.2,202.6,104.2,201.7z"/>
	<path class="st1" d="M114.7,202.9c0-0.8,0.1-2,0.1-3v-14h2.1v7.3h0c0.7-1.3,2.1-2.1,4-2.1c2.9,0,4.9,2.4,4.9,5.9
		c0,4.2-2.6,6.2-5.2,6.2c-1.7,0-3-0.6-3.9-2.2h-0.1l-0.1,1.9H114.7z M116.8,198.3c0,0.3,0,0.5,0.1,0.8c0.4,1.5,1.6,2.5,3.2,2.5
		c2.2,0,3.5-1.8,3.5-4.5c0-2.3-1.2-4.3-3.5-4.3c-1.4,0-2.8,1-3.2,2.6c0,0.2-0.1,0.5-0.1,0.9V198.3z"/>
	<path class="st1" d="M128.4,185.9h2.1v17h-2.1V185.9z"/>
	<path class="st1" d="M140.5,202.9l-0.2-1.5h-0.1c-0.6,0.9-1.9,1.7-3.6,1.7c-2.4,0-3.6-1.7-3.6-3.3c0-2.8,2.5-4.3,7-4.3v-0.2
		c0-1-0.3-2.7-2.6-2.7c-1.1,0-2.2,0.3-3,0.9l-0.5-1.4c1-0.6,2.4-1,3.8-1c3.6,0,4.4,2.4,4.4,4.8v4.3c0,1,0,2,0.2,2.8H140.5z
		 M140.2,197c-2.3,0-4.9,0.4-4.9,2.6c0,1.4,0.9,2,2,2c1.5,0,2.5-1,2.8-1.9c0.1-0.2,0.1-0.5,0.1-0.7V197z"/>
	<path class="st1" d="M153.9,202.5c-0.6,0.3-1.8,0.7-3.3,0.7c-3.5,0-5.8-2.4-5.8-5.9c0-3.6,2.4-6.2,6.2-6.2c1.2,0,2.4,0.3,2.9,0.6
		l-0.5,1.6c-0.5-0.3-1.3-0.6-2.4-0.6c-2.7,0-4.1,2-4.1,4.4c0,2.7,1.7,4.3,4,4.3c1.2,0,2-0.3,2.6-0.6L153.9,202.5z"/>
	<path class="st1" d="M158.5,196.7L158.5,196.7c0.3-0.4,0.7-0.9,1.1-1.3l3.4-4h2.5l-4.5,4.8l5.1,6.8h-2.6l-4-5.6l-1.1,1.2v4.4h-2.1
		v-17h2.1V196.7z"/>
	<path class="st1" d="M71.2,231.3c-0.6,0.3-1.8,0.7-3.3,0.7c-3.5,0-5.8-2.4-5.8-5.9c0-3.6,2.4-6.2,6.2-6.2c1.2,0,2.4,0.3,2.9,0.6
		l-0.5,1.6c-0.5-0.3-1.3-0.6-2.4-0.6c-2.7,0-4.1,2-4.1,4.4c0,2.7,1.7,4.3,4,4.3c1.2,0,2-0.3,2.6-0.6L71.2,231.3z"/>
	<path class="st1" d="M84,225.8c0,4.3-3,6.2-5.8,6.2c-3.1,0-5.6-2.3-5.6-6c0-3.9,2.5-6.2,5.8-6.2C81.8,219.9,84,222.3,84,225.8z
		 M74.8,226c0,2.5,1.5,4.5,3.5,4.5c2,0,3.5-1.9,3.5-4.5c0-2-1-4.5-3.5-4.5S74.8,223.7,74.8,226z"/>
	<path class="st1" d="M86.7,214.7h2.1v17h-2.1V214.7z"/>
	<path class="st1" d="M102.9,225.8c0,4.3-3,6.2-5.8,6.2c-3.1,0-5.6-2.3-5.6-6c0-3.9,2.5-6.2,5.8-6.2
		C100.6,219.9,102.9,222.3,102.9,225.8z M93.6,226c0,2.5,1.5,4.5,3.5,4.5c2,0,3.5-1.9,3.5-4.5c0-2-1-4.5-3.5-4.5
		S93.6,223.7,93.6,226z"/>
	<path class="st1" d="M105.5,223.7c0-1.4,0-2.5-0.1-3.6h1.8l0.1,2.3h0.1c0.5-1.6,1.8-2.5,3.2-2.5c0.2,0,0.4,0,0.6,0.1v2
		c-0.2,0-0.4-0.1-0.7-0.1c-1.5,0-2.5,1.1-2.8,2.7c0,0.3-0.1,0.6-0.1,1v6.2h-2.1V223.7z"/>
	<path class="st1" d="M113.1,222c0-0.9,0.6-1.5,1.4-1.5c0.8,0,1.4,0.6,1.4,1.5c0,0.8-0.6,1.5-1.4,1.5
		C113.7,223.5,113.1,222.9,113.1,222z M113.1,230.5c0-0.9,0.6-1.5,1.4-1.5c0.8,0,1.4,0.6,1.4,1.5c0,0.8-0.6,1.5-1.4,1.5
		C113.7,232,113.1,231.4,113.1,230.5z"/>
	<path class="st1" d="M125.2,215.3l-0.4,5.8h-1.3l-0.4-5.8H125.2z M128.8,215.3l-0.4,5.8h-1.3l-0.4-5.8H128.8z"/>
	<path class="st1" d="M132.2,231.7l0.6-4.7h-2v-1.4h2.2l0.5-3.5h-2.1v-1.4h2.3l0.6-4.6h1.4l-0.6,4.6h2.5l0.6-4.6h1.4l-0.6,4.6h2v1.4
		h-2.2l-0.4,3.5h2.1v1.4h-2.3l-0.6,4.7h-1.4l0.6-4.7h-2.5l-0.6,4.7H132.2z M137,225.6l0.5-3.5h-2.5l-0.5,3.5H137z"/>
	<path class="st1" d="M153.4,223.8c0,5.3-2,8.2-5.4,8.2c-3,0-5.1-2.9-5.2-8c0-5.2,2.3-8.1,5.4-8.1
		C151.5,215.9,153.4,218.8,153.4,223.8z M144.9,224c0,4.1,1.2,6.4,3.2,6.4c2.2,0,3.2-2.5,3.2-6.5c0-3.8-1-6.4-3.2-6.4
		C146.2,217.5,144.9,219.8,144.9,224z"/>
	<path class="st1" d="M165.7,223.8c0,5.3-2,8.2-5.4,8.2c-3,0-5.1-2.9-5.2-8c0-5.2,2.3-8.1,5.4-8.1
		C163.8,215.9,165.7,218.8,165.7,223.8z M157.2,224c0,4.1,1.2,6.4,3.2,6.4c2.2,0,3.2-2.5,3.2-6.5c0-3.8-1-6.4-3.2-6.4
		C158.5,217.5,157.2,219.8,157.2,224z"/>
	<path class="st1" d="M178,223.8c0,5.3-2,8.2-5.4,8.2c-3,0-5.1-2.9-5.2-8c0-5.2,2.3-8.1,5.4-8.1C176.1,215.9,178,218.8,178,223.8z
		 M169.5,224c0,4.1,1.2,6.4,3.2,6.4c2.2,0,3.2-2.5,3.2-6.5c0-3.8-1-6.4-3.2-6.4C170.8,217.5,169.5,219.8,169.5,224z"/>
	<path class="st1" d="M190.3,223.8c0,5.3-2,8.2-5.4,8.2c-3,0-5.1-2.9-5.2-8c0-5.2,2.3-8.1,5.4-8.1
		C188.4,215.9,190.3,218.8,190.3,223.8z M181.8,224c0,4.1,1.2,6.4,3.2,6.4c2.2,0,3.2-2.5,3.2-6.5c0-3.8-1-6.4-3.2-6.4
		C183.2,217.5,181.8,219.8,181.8,224z"/>
	<path class="st1" d="M202.6,223.8c0,5.3-2,8.2-5.4,8.2c-3,0-5.1-2.9-5.2-8c0-5.2,2.3-8.1,5.4-8.1
		C200.7,215.9,202.6,218.8,202.6,223.8z M194.1,224c0,4.1,1.2,6.4,3.2,6.4c2.2,0,3.2-2.5,3.2-6.5c0-3.8-1-6.4-3.2-6.4
		C195.5,217.5,194.1,219.8,194.1,224z"/>
	<path class="st1" d="M214.9,223.8c0,5.3-2,8.2-5.4,8.2c-3,0-5.1-2.9-5.2-8c0-5.2,2.3-8.1,5.4-8.1
		C213,215.9,214.9,218.8,214.9,223.8z M206.4,224c0,4.1,1.2,6.4,3.2,6.4c2.2,0,3.2-2.5,3.2-6.5c0-3.8-1-6.4-3.2-6.4
		C207.8,217.5,206.4,219.8,206.4,224z"/>
	<path class="st1" d="M219.1,215.3l-0.4,5.8h-1.3l-0.4-5.8H219.1z M222.7,215.3l-0.4,5.8H221l-0.4-5.8H222.7z"/>
</g>
</svg>
